<?xml version="1.0" encoding="UTF-8"?>
<!-- Created with Inkscape (http://www.inkscape.org/) -->
<svg width="88.45mm" height="123.65mm" version="1.1" viewBox="0 0 88.448974 123.648" xmlns="http://www.w3.org/2000/svg" xmlns:cc="http://creativecommons.org/ns#" xmlns:dc="http://purl.org/dc/elements/1.1/" xmlns:rdf="http://www.w3.org/1999/02/22-rdf-syntax-ns#">
 <defs>
  <marker id="marker3418" overflow="visible" orient="auto">
   <path transform="matrix(-1.1,0,0,-1.1,-1.1,0)" d="m8.7186 4.0337-10.926-4.0177 10.926-4.0177c-1.7455 2.3721-1.7354 5.6175-6e-7 8.0354z" fill-rule="evenodd" stroke="#000" stroke-linejoin="round" stroke-width=".625"/>
  </marker>
  <marker id="Arrow2Lend" overflow="visible" orient="auto">
   <path transform="matrix(-1.1,0,0,-1.1,-1.1,0)" d="m8.7186 4.0337-10.926-4.0177 10.926-4.0177c-1.7455 2.3721-1.7354 5.6175-6e-7 8.0354z" fill-rule="evenodd" stroke="#000" stroke-linejoin="round" stroke-width=".625"/>
  </marker>
 </defs>
 <metadata>
  <rdf:RDF>
   <cc:Work rdf:about="">
    <dc:format>image/svg+xml</dc:format>
    <dc:type rdf:resource="http://purl.org/dc/dcmitype/StillImage"/>
    <dc:title/>
   </cc:Work>
  </rdf:RDF>
 </metadata>
 <g fill="#292929" font-family="sans-serif" font-size="10.583px" letter-spacing="0px" stroke-width=".26458" word-spacing="0px">
  <text x="43.58725" y="76.594933" style="line-height:1.25" xml:space="preserve"><tspan x="43.58725" y="76.594933" font-size="4.9389px"><tspan font-family="sans-serif" font-style="italic">t</tspan><tspan baseline-shift="sub" font-size="65%">1</tspan></tspan></text>
  <text x="13.215282" y="8.665597" style="line-height:1.25" xml:space="preserve"><tspan x="13.215282" y="8.665597" fill="#292929" font-size="4.9389px" stroke-width=".26458">CP</tspan></text>
  <text x="0.099665657" y="19.970127" style="line-height:1.25" xml:space="preserve"><tspan x="0.099665657" y="19.970127" fill="#292929" font-size="4.9389px" stroke-width=".26458">NP</tspan></text>
  <text x="1.1968441" y="31.307638" style="line-height:1.25" xml:space="preserve"><tspan x="1.1968441" y="31.307638" fill="#292929" font-size="4.9389px" stroke-width=".26458">N'</tspan></text>
  <text x="1.2162652" y="42.498859" style="line-height:1.25" xml:space="preserve"><tspan x="1.2162652" y="42.498859" fill="#292929" font-size="4.9389px" stroke-width=".26458">N</tspan></text>
  <text x="-0.46607494" y="53.909515" style="line-height:1.25" xml:space="preserve"><tspan x="-0.46607494" y="53.909515" fill="#292929" font-size="4.9389px" stroke-width=".26458">lak<tspan baseline-shift="sub" fill="#292929" font-size="65%">2</tspan></tspan></text>
  <text x="28.114288" y="19.860411" style="line-height:1.25" xml:space="preserve"><tspan x="28.114288" y="19.860411" fill="#292929" font-size="4.9389px" stroke-width=".26458">C'</tspan></text>
  <text x="13.029221" y="42.722862" style="line-height:1.25" xml:space="preserve"><tspan x="13.029221" y="42.722862" fill="#292929" font-size="4.9389px" stroke-width=".26458">Pol</tspan></text>
  <text x="14.548567" y="53.925503" style="line-height:1.25" xml:space="preserve"><tspan x="14.548567" y="53.925503" fill="#292929" font-size="4.9389px" stroke-width=".26458">∅<tspan baseline-shift="sub" fill="#292929" font-size="65%">1</tspan></tspan></text>
  <text x="40.363865" y="31.321577" style="line-height:1.25" xml:space="preserve"><tspan x="40.363865" y="31.321577" fill="#292929" font-size="4.9389px" stroke-width=".26458">TP</tspan></text>
  <text x="27.549706" y="42.540604" style="line-height:1.25" xml:space="preserve"><tspan x="27.549706" y="42.540604" fill="#292929" font-size="4.9389px" stroke-width=".26458">NP</tspan></text>
  <text x="54.173412" y="42.425716" style="line-height:1.25" xml:space="preserve"><tspan x="54.173412" y="42.425716" fill="#292929" font-size="4.9389px" stroke-width=".26458">T'</tspan></text>
  <text x="52.932182" y="53.872147" style="line-height:1.25" xml:space="preserve"><tspan x="52.932182" y="53.872147" fill="#292929" font-size="4.9389px" stroke-width=".26458">VP</tspan></text>
  <text x="28.7869" y="54.015266" style="line-height:1.25" xml:space="preserve"><tspan x="28.7869" y="54.015266" fill="#292929" font-size="4.9389px" stroke-width=".26458">N'</tspan></text>
  <text x="28.806324" y="65.206482" style="line-height:1.25" xml:space="preserve"><tspan x="28.806324" y="65.206482" fill="#292929" font-size="4.9389px" stroke-width=".26458">N</tspan></text>
  <text x="27.694839" y="76.73082" style="line-height:1.25" xml:space="preserve"><tspan x="27.694839" y="76.73082" fill="#292929" font-size="4.9389px" stroke-width=".26458">tik</tspan></text>
  <text x="55.052307" y="76.589706" style="line-height:1.25" xml:space="preserve"><tspan x="55.052307" y="76.589706" fill="#292929" font-size="4.9389px" stroke-width=".26458">NP</tspan></text>
  <text x="56.289505" y="88.064369" style="line-height:1.25" xml:space="preserve"><tspan x="56.289505" y="88.064369" fill="#292929" font-size="4.9389px" stroke-width=".26458">N'</tspan></text>
  <text x="56.308929" y="99.255585" style="line-height:1.25" xml:space="preserve"><tspan x="56.308929" y="99.255585" fill="#292929" font-size="4.9389px" stroke-width=".26458">N</tspan></text>
  <text x="66.422028" y="65.194588" style="line-height:1.25" xml:space="preserve"><tspan x="66.422028" y="65.194588" fill="#292929" font-size="4.9389px" stroke-width=".26458">V'</tspan></text>
  <text x="76.409569" y="76.43824" style="line-height:1.25" xml:space="preserve"><tspan x="76.409569" y="76.43824" fill="#292929" font-size="4.9389px" stroke-width=".26458">V</tspan></text>
  <text x="68.14415" y="87.922043" style="line-height:1.25" xml:space="preserve"><tspan x="68.14415" y="87.922043" fill="#292929" font-size="4.9389px" stroke-width=".26458">ʔsar-yek</tspan></text>
  <text x="40.929142" y="65.161415" style="line-height:1.25" xml:space="preserve"><tspan x="40.929142" y="65.161415" fill="#292929" font-size="4.9389px" stroke-width=".26458">Pol</tspan></text>
  <text x="57.03484" y="110.52423" style="line-height:1.25" xml:space="preserve"><tspan x="57.03484" y="110.52423" fill="#292929" font-family="sans-serif" font-size="4.9389px" font-style="italic" stroke-width=".26458">t<tspan baseline-shift="sub" fill="#292929" font-size="65%" font-style="normal">2</tspan></tspan></text>
 </g>
 <path d="m3.0449 25.529v-3.7304" fill="none" stroke="#3c3c3c" stroke-linecap="round" stroke-linejoin="round" stroke-width=".5"/>
 <text x="-22.747984" y="27.977289" fill="#000000" font-family="sans-serif" font-size="10.583px" letter-spacing="0px" stroke-width=".26458" word-spacing="0px" style="line-height:1.25" xml:space="preserve"><tspan x="-22.747984" y="37.341068" font-size="4.9389px" stroke-width=".26458"/></text>
 <g fill="none">
  <g stroke="#3c3c3c" stroke-linecap="round" stroke-linejoin="round" stroke-width=".5">
   <path d="m3.4034 14.208 13.047-3.3861 13.199 3.3495"/>
   <path d="m16.812 25.458 13.047-3.3861 13.199 3.3495"/>
   <path d="m3.0449 37.145v-3.7304"/>
   <path d="m3.0449 48.276v-3.7304"/>
   <path d="m30.598 48.32v-3.7304"/>
   <path d="m30.598 59.806v-3.7304"/>
   <path d="m30.598 71.067v-3.7304"/>
   <path d="m58.089 82.238v-3.7304"/>
   <path d="m58.089 93.506v-3.7304"/>
   <path d="m58.089 104.99v-3.7304"/>
   <path d="m16.641 48.422v-3.7304"/>
   <path d="m44.51 71.024v-3.7304"/>
   <path d="m78.083 82.31v-3.7304"/>
   <path d="m56.123 48.32v-3.7304"/>
   <path d="m30.777 36.837 12.711-3.4896 12.553 3.5564"/>
   <path d="m44.824 59.399 11.285-3.4164 11.821 3.5564"/>
   <path d="m58.33 70.78 9.8217-3.4164 9.7366 3.5198"/>
  </g>
  <g stroke="#000">
   <path d="m42.69 78.413c-11.543 15.058-37.9 13.515-29.21-20.067" stroke-width=".5"/>
   <path d="m13.479 58.346 0.54652-2.1054" marker-end="url(#Arrow2Lend)" stroke-width=".25"/>
   <path d="m55.961 113.16c-16.68 16.522-52.973-7.277-51.778-53.849" stroke-width=".5"/>
   <path d="m4.1831 59.31-0.028689-2.142" marker-end="url(#marker3418)" stroke-width=".25"/>
  </g>
 </g>
 <text x="14.801855" y="31.271069" fill="#292929" font-family="sans-serif" font-size="10.583px" letter-spacing="0px" stroke-width=".26458" word-spacing="0px" style="line-height:1.25" xml:space="preserve"><tspan x="14.801855" y="31.271069" fill="#292929" font-size="4.9389px" stroke-width=".26458">C</tspan></text>
 <path d="m16.669 36.974v-3.7304" fill="none" stroke="#3c3c3c" stroke-linecap="round" stroke-linejoin="round" stroke-width=".5"/>
</svg>
